<svg xmlns="http://www.w3.org/2000/svg" style="display: none;">
    <symbol id="arrow-small" viewBox="0 0 5 8">
      <title>Фигура 1 kопировать 3</title><path d="M.004 1.516l.71-.708L3.13 3.224l.415-.415.71.707-.416.414.416.416-.71.708-.414-.415-2.42 2.415-.708-.708 2.42-2.416z" fill="#aaa"/>
    </symbol>
    <symbol id="arrows" viewBox="0 0 27.3 25.9">
      <title>arrows</title><g fill="none"><path d="M1.3 15.4L16.3.5M9.6 16.3l-8.3-.9-.8-8.3M25.9 10.5L11 25.4M17.6 9.6l8.3.9.9 8.3"/></g>
    </symbol>
    <symbol id="flags" viewBox="0 0 41.9 25.9">
      <title>flags</title><g fill="none"><path d="M22.1 11.9l-7.8 13.5M34.8 19.3c-4.4-2.5-6.9-7.7-12.7-7.5L28.7.5c6.1-.6 8.6 5 12.7 7.5l-6.6 11.3zM7.1 19.3c4.4-2.5 6.9-7.7 12.7-7.5L13.2.5C7.1 0 4.6 5.5.5 8l6.6 11.3zM20.1 11.9l7.8 13.5"/></g>
    </symbol>
    <symbol id="house" viewBox="0 0 27.8 25.9">
      <title>house</title><g fill="none"><path d="M22.1 25.4H5.8V9.9H.5L14.1.5l13.2 9.4h-5.2v15.5"/><path d="M10.7 25.4V14.6h6.4v10.8"/></g>
    </symbol>
    <symbol id="monte" viewBox="0 0 26.2 26.2">
      <title>monte</title><path d="M13.3 24c-.5-.3-1-.7-1.4-1.1-2.2-2.8-3.3-6.9-3.6-10.5 0-.8.1-1.7.3-2.5l-5 4.1m-1.4-1.1c.1-.8.7-1.5 1.4-1.9 3.1-2.2 6.7-3.3 10.5-3.3.8 0 1.7.1 2.5.3l-4.2-5.3m1.1-1.4c.7.3 1.4.8 1.9 1.4 2.2 3.1 3.3 6.7 3.3 10.5 0 .8-.1 1.7-.3 2.5l5.3-4.1m1.4 1.4c-.3.7-.8 1.3-1.4 1.7C20.6 16.9 17 18 13.2 18c-.8 0-1.7-.1-2.5-.3l3.9 5.3m.3 0c2.3-.9 4.5-2 6.6-3.3 1.7-1.4 4.1-4.4 4.1-6.6s-.8-2.2-1.9-1.9-.3 0-.6.3c-.8-2.4-1.9-4.6-3.3-6.6C18.5 3 15.5.5 13.3.5s-2.2.8-1.9 1.9 0 .3.3.6C9.3 3.8 7.1 4.9 5 6.3 3.3 7.7.8 10.5.6 12.9c-.2.9.4 1.7 1.2 1.9h1c1.1 2.5 1.9 4.7 3.6 6.6s4.4 3.9 6.6 4.1 2.2-.8 1.9-1.9v-.8.2z" fill="none"/>
    </symbol>
    <symbol id="paperplane" viewBox="0 0 29.8 25.9">
      <title>paperplane</title><g fill="none"><path d="M.5 8.8L29.3.5l-23 14.4M14.9 24L29.3.5l-3.4 2.8-4.4 3.8-13 10.8"/><path d="M6.3 14.9v10.5l6.1-3.9"/></g>
    </symbol></svg>