<svg xmlns="http://www.w3.org/2000/svg" viewBox="0 0 290.625 290.625"><path d="M276.563 281.25V60.938h-16.645l-37.5-42.188h-25.542V0H14.062v281.25H4.687v9.375h281.25v-9.375h-9.374zm-58.35-253.125l29.16 32.813h-50.498V46.875H187.5v14.063h-50.498l29.17-32.813h52.041zm-82.275 14.063v-9.375h13.519l-8.334 9.375h-5.185zM107.812 281.25H56.25v-70.313h51.563v70.313zm0-126.562h-18.75v-9.375h18.75v9.375zm0-37.5h-18.75v-9.375h18.75v9.375zm0-37.5h-18.75v-9.375h18.75v9.375zm-28.125-18.75v28.125h28.125v9.375H79.687v28.125h28.125v9.375H79.687v28.125h28.125v18.75h-75v9.375h75v9.375h-75v9.375h14.063v70.313H23.437V9.375H187.5v9.375h-25.542l-4.167 4.688h-31.228v28.125h6.23l-8.334 9.375H79.687zm75.001 220.312h-18.75v-28.125c0-5.17 4.205-9.375 9.375-9.375s9.375 4.205 9.375 9.375v28.125zm46.875 0h-18.75v-28.125c0-5.17 4.205-9.375 9.375-9.375s9.375 4.205 9.375 9.375v28.125zm46.875 0h-18.75v-28.125c0-5.17 4.205-9.375 9.375-9.375s9.375 4.205 9.375 9.375v28.125zm18.75 0h-9.375v-28.125c0-10.341-8.409-18.75-18.75-18.75s-18.75 8.409-18.75 18.75v28.125h-9.375v-28.125c0-10.341-8.409-18.75-18.75-18.75s-18.75 8.409-18.75 18.75v28.125h-9.375v-28.125c0-10.341-8.409-18.75-18.75-18.75s-18.75 8.409-18.75 18.75v28.125h-9.375V70.313h150V281.25z"/><path d="M164.063 192.188h-37.5v28.125h37.5v-28.125zm-9.375 18.75h-18.75v-9.375h18.75v9.375zM210.938 192.188h-37.5v28.125h37.5v-28.125zm-9.375 18.75h-18.75v-9.375h18.75v9.375zM257.813 192.188h-37.5v28.125h37.5v-28.125zm-9.375 18.75h-18.75v-9.375h18.75v9.375zM164.063 154.688h-37.5v28.125h37.5v-28.125zm-9.375 18.75h-18.75v-9.375h18.75v9.375zM210.938 154.688h-37.5v28.125h37.5v-28.125zm-9.375 18.75h-18.75v-9.375h18.75v9.375zM257.813 154.688h-37.5v28.125h37.5v-28.125zm-9.375 18.75h-18.75v-9.375h18.75v9.375zM164.063 117.188h-37.5v28.125h37.5v-28.125zm-9.375 18.75h-18.75v-9.375h18.75v9.375zM210.938 117.188h-37.5v28.125h37.5v-28.125zm-9.375 18.75h-18.75v-9.375h18.75v9.375zM257.813 117.188h-37.5v28.125h37.5v-28.125zm-9.375 18.75h-18.75v-9.375h18.75v9.375zM164.063 79.688h-37.5v28.125h37.5V79.688zm-9.375 18.75h-18.75v-9.375h18.75v9.375zM210.938 79.688h-37.5v28.125h37.5V79.688zm-9.375 18.75h-18.75v-9.375h18.75v9.375zM257.813 79.688h-37.5v28.125h37.5V79.688zm-9.375 18.75h-18.75v-9.375h18.75v9.375zM32.812 164.063h37.5v-28.125h-37.5v28.125zm9.375-18.75h18.75v9.375h-18.75v-9.375zM32.812 126.563h37.5V98.438h-37.5v28.125zm9.375-18.75h18.75v9.375h-18.75v-9.375zM32.812 89.063h37.5V60.938h-37.5v28.125zm9.375-18.75h18.75v9.375h-18.75v-9.375zM32.812 51.563h37.5V23.438h-37.5v28.125zm9.375-18.75h18.75v9.375h-18.75v-9.375zM79.687 51.563h37.5V23.438h-37.5v28.125zm9.375-18.75h18.75v9.375h-18.75v-9.375z"/></svg>