<svg xmlns="http://www.w3.org/2000/svg" viewBox="0 0 512 512" width="512" height="512"><g fill="#333"><path d="M256 85.333c-46.933 0-85.333 38.4-85.333 85.333S209.067 256 256 256s85.333-38.4 85.333-85.333-38.4-85.334-85.333-85.334zm0 153.6c-37.547 0-68.267-30.72-68.267-68.267s30.72-68.267 68.267-68.267 68.267 30.72 68.267 68.267-30.72 68.267-68.267 68.267z"/><path d="M256 119.467c-28.16 0-51.2 23.04-51.2 51.2 0 5.12 3.413 8.533 8.533 8.533s8.533-3.413 8.533-8.533c0-18.773 15.36-34.133 34.133-34.133 5.12 0 8.533-3.413 8.533-8.533s-3.412-8.534-8.532-8.534z"/><path d="M256 0C162.133 0 85.333 76.8 85.333 170.667c0 46.08 13.653 74.24 33.28 112.64 2.56 5.973 5.973 11.947 9.387 18.773 47.787 98.133 120.32 204.8 121.173 206.507C250.88 510.293 253.44 512 256 512c2.56 0 5.12-1.707 6.827-4.267.853-.853 73.386-107.52 121.173-205.653 3.413-6.827 5.973-12.8 9.387-18.773 19.627-38.4 33.28-66.56 33.28-112.64C426.667 76.8 349.867 0 256 0zm122.027 274.773c-2.56 6.827-5.973 12.8-9.387 19.627-38.4 78.507-93.013 163.84-112.64 192.853C236.373 458.24 181.76 373.76 143.36 294.4c-3.413-5.973-5.973-12.8-9.387-18.773C115.2 238.08 102.4 212.48 102.4 170.667c0-84.48 69.12-153.6 153.6-153.6s153.6 69.12 153.6 153.6c0 41.813-12.8 67.413-31.573 104.106z"/></g></svg>