<svg xmlns="http://www.w3.org/2000/svg" viewBox="0 0 512 512"><path d="M102.4 452.267h-8.533V384c5.12 0 8.533-3.413 8.533-8.533s-3.413-8.533-8.533-8.533v-68.267c5.12 0 8.533-3.413 8.533-8.533s-3.413-8.533-8.533-8.533v-85.333h8.533c5.12 0 8.533-3.413 8.533-8.533v-59.732-42.668V25.6c0-14.507-11.093-25.6-25.6-25.6s-25.6 11.093-25.6 25.6v162.133c0 5.12 3.413 8.533 8.533 8.533H76.8V281.6c-5.12 0-8.533 3.413-8.533 8.533s3.413 8.533 8.533 8.533v68.267c-5.12 0-8.533 3.413-8.533 8.533S71.68 384 76.8 384v68.267h-8.533c-9.387 0-17.067 7.68-17.067 17.067v8.533c0 9.387 7.68 17.067 17.067 17.067H76.8v8.533c0 5.12 3.413 8.533 8.533 8.533s8.533-3.413 8.533-8.533v-8.533h8.533c9.387 0 17.067-7.68 17.067-17.067v-8.533c.001-9.387-7.679-17.067-17.066-17.067zM76.8 179.2v-13.653l17.067-17.067v30.72H76.8zm0-56.32l17.067-17.067v18.773L76.8 141.653V122.88zm8.533-105.813c5.12 0 8.533 3.413 8.533 8.533v56.32L76.8 98.987V25.6c0-5.12 3.413-8.533 8.533-8.533zm17.067 460.8H68.267v-8.533H102.4v8.533zM187.733 247.467c-14.507 0-25.6 11.093-25.6 25.6V332.8c0 9.387 7.68 17.067 17.067 17.067h17.067c9.387 0 17.067-7.68 17.067-17.067v-59.733c-.001-14.507-11.094-25.6-25.601-25.6zm8.534 85.333H179.2v-59.733c0-5.12 3.413-8.533 8.533-8.533s8.533 3.413 8.533 8.533V332.8zM443.733 452.267H435.2V384c5.12 0 8.533-3.413 8.533-8.533s-3.413-8.533-8.533-8.533v-68.267c5.12 0 8.533-3.413 8.533-8.533s-3.413-8.533-8.533-8.533v-85.333h8.533c5.12 0 8.533-3.413 8.533-8.533V25.6c0-14.507-11.093-25.6-25.6-25.6-14.507 0-25.6 11.093-25.6 25.6v162.133c0 5.12 3.413 8.533 8.533 8.533h8.533V281.6c-5.12 0-8.533 3.413-8.533 8.533s3.413 8.533 8.533 8.533v68.267c-5.12 0-8.533 3.413-8.533 8.533s3.413 8.533 8.533 8.533v68.267H409.6c-9.387 0-17.067 7.68-17.067 17.067v8.533c0 9.387 7.68 17.067 17.067 17.067h8.533v8.533c0 5.12 3.413 8.533 8.533 8.533s8.533-3.413 8.533-8.533v-8.533h8.533c9.387 0 17.067-7.68 17.067-17.067v-8.533c.001-9.386-7.679-17.066-17.066-17.066zm-25.6-273.067v-13.653L435.2 148.48v30.72h-17.067zm0-56.32l17.067-17.067v18.773l-17.067 17.067V122.88zm8.534-105.813c5.12 0 8.533 3.413 8.533 8.533v56.32l-17.067 17.067V25.6c0-5.12 3.414-8.533 8.534-8.533zm17.066 460.8H409.6v-8.533h34.133v8.533z"/><path d="M238.777 47.406c-.041-.55-.079-1.101-.138-1.646-.05-.469-.117-.936-.18-1.404-.055-.407-.107-.815-.171-1.219a51.158 51.158 0 0 0-.296-1.647c-.058-.3-.115-.601-.179-.899a49.07 49.07 0 0 0-.596-2.49 48.526 48.526 0 0 0-.537-1.879c-.066-.213-.136-.423-.205-.635a48.013 48.013 0 0 0-.603-1.773c-.186-.511-.389-1.013-.591-1.516-.102-.25-.193-.505-.299-.754a50.653 50.653 0 0 0-1.328-2.9 6.118 6.118 0 0 0-.472-.918C224.635 11.296 207.444 0 187.733 0c-28.16 0-51.2 23.04-51.2 51.2V460.8c0 28.16 23.04 51.2 51.2 51.2 28.16 0 51.2-23.04 51.2-51.2V51.2c0-.922-.028-1.837-.076-2.747-.019-.35-.055-.698-.08-1.047zM153.6 117.76l68.224-68.224c.027.552.042 1.106.042 1.664v22.187L153.6 141.653V117.76zm0 47.787l68.267-68.267v23.893L153.6 189.44v-23.893zm34.133-148.48c11.336 0 21.42 5.606 27.637 14.176l-61.77 61.77V51.2c0-18.773 15.36-34.133 34.133-34.133zm0 477.866c-18.773 0-34.133-15.36-34.133-34.133V214.187l68.267-68.267V460.8c0 18.773-15.36 34.133-34.134 34.133z"/><path d="M187.733 469.333c-5.12 0-8.533-3.413-8.533-8.533v-68.267c0-5.12-3.413-8.533-8.533-8.533-5.12 0-8.533 3.413-8.533 8.533V460.8c0 14.507 11.093 25.6 25.6 25.6 5.12 0 8.533-3.413 8.533-8.533s-3.414-8.534-8.534-8.534zM324.267 247.467c-14.507 0-25.6 11.093-25.6 25.6V332.8c0 9.387 7.68 17.067 17.067 17.067H332.8c9.387 0 17.067-7.68 17.067-17.067v-59.733c0-14.507-11.094-25.6-25.6-25.6zM332.8 332.8h-17.067v-59.733c0-5.12 3.413-8.533 8.533-8.533s8.533 3.413 8.533 8.533V332.8z"/><path d="M375.353 47.967a50.69 50.69 0 0 0-5.165-19.321 6.08 6.08 0 0 0-.472-.919C361.168 11.296 343.978 0 324.267 0c-28.16 0-51.2 23.04-51.2 51.2V460.8c0 28.16 23.04 51.2 51.2 51.2s51.2-23.04 51.2-51.2V51.2c0-.928-.028-1.85-.078-2.767-.009-.156-.026-.31-.036-.466zm-85.22 69.793l68.224-68.224c.027.552.042 1.106.042 1.664v22.187l-68.267 68.267V117.76zm0 47.787L358.4 97.28v23.893l-68.267 68.267v-23.893zm34.134-148.48c11.336 0 21.42 5.606 27.637 14.176l-61.77 61.77V51.2c-.001-18.773 15.359-34.133 34.133-34.133zm0 477.866c-18.773 0-34.133-15.36-34.133-34.133V214.187L358.4 145.92V460.8c0 18.773-15.36 34.133-34.133 34.133z"/><path d="M324.267 469.333c-5.12 0-8.533-3.413-8.533-8.533v-68.267c0-5.12-3.413-8.533-8.533-8.533s-8.533 3.413-8.533 8.533V460.8c0 14.507 11.093 25.6 25.6 25.6 5.12 0 8.533-3.413 8.533-8.533s-3.414-8.534-8.534-8.534z"/></svg>