<svg xmlns="http://www.w3.org/2000/svg" viewBox="0 0 482.4 482.4" width="512" height="512"><path d="M458.6 23.786c-14.5-14.5-34.5-22.9-56.3-23.7-20.7-.8-41.9 5-61.1 16.8-8.5 5.2-11.2 16.3-6 24.7 5.2 8.5 16.3 11.2 24.7 6 26.1-16 56.2-15.3 73.2 1.7 10 10 14.6 24.5 12.9 40.8-1.8 17.7-10.5 35.1-24.5 49.1s-31.5 22.7-49.1 24.5c-16.3 1.6-30.8-3-40.8-12.9-6.5-6.5-15.1-10-24.2-10-9.2 0-17.8 3.6-24.3 10-6.5 6.5-10 15.1-10 24.3s3.6 17.8 10.1 24.3 15.1 10 24.2 10c9.2 0 17.8-3.6 24.3-10 1.4-1.4 2.7-2.9 3.8-4.5 9.5 3.4 19.7 5.2 30.5 5.2 3.3 0 6.7-.2 10.1-.5.3 0 .6-.1.9-.1l3.1 44.9c.7 10.2-3.1 20.2-10.3 27.5l-167.7 167.5c-9.4 9.4-24.8 9.4-34.2 0L43 314.486c-4.6-4.6-7.1-10.7-7.1-17.1 0-6.5 2.5-12.5 7.1-17.1l167.6-167.6c7.2-7.2 17.2-11 27.4-10.3l148.9 9.9c9.9.7 18.5-6.8 19.2-16.8.7-9.9-6.8-18.5-16.8-19.2l-148.9-9.9c-20.5-1.4-40.7 6.2-55.2 20.8l-167.6 167.6c-11.4 11.4-17.6 26.5-17.6 42.6s6.3 31.2 17.6 42.6l124.8 124.8c11.7 11.7 27.2 17.6 42.6 17.6 15.4 0 30.8-5.9 42.6-17.6l167.6-167.6c14.6-14.6 22.2-34.8 20.8-55.4l-3.6-52.6c12.6-6 24.3-14.3 34.7-24.6 19.8-19.8 32.2-45 34.8-70.9 2.7-27.3-5.6-52.1-23.3-69.9z" fill="#333"/></svg>