<?xml version="1.0" encoding="iso-8859-1"?>
<!-- Generator: Adobe Illustrator 19.0.0, SVG Export Plug-In . SVG Version: 6.00 Build 0)  -->
<svg version="1.1" id="Layer_1" xmlns="http://www.w3.org/2000/svg" xmlns:xlink="http://www.w3.org/1999/xlink" x="0px" y="0px"
	 viewBox="0 0 512 512" style="enable-background:new 0 0 512 512;" xml:space="preserve">
<g transform="translate(1 1)">
	<g>
		<g>
			<path d="M101.4,451.267h-8.533V383c5.12,0,8.533-3.413,8.533-8.533s-3.413-8.533-8.533-8.533v-68.267
				c5.12,0,8.533-3.413,8.533-8.533s-3.413-8.533-8.533-8.533v-85.333h8.533c5.12,0,8.533-3.413,8.533-8.533v-59.732
				c0-0.001,0-0.002,0-0.002V84.335c0-0.001,0-0.002,0-0.002V24.6c0-14.507-11.093-25.6-25.6-25.6s-25.6,11.093-25.6,25.6v162.133
				c0,5.12,3.413,8.533,8.533,8.533H75.8V280.6c-5.12,0-8.533,3.413-8.533,8.533s3.413,8.533,8.533,8.533v68.267
				c-5.12,0-8.533,3.413-8.533,8.533S70.68,383,75.8,383v68.267h-8.533c-9.387,0-17.067,7.68-17.067,17.067v8.533
				c0,9.387,7.68,17.067,17.067,17.067H75.8v8.533c0,5.12,3.413,8.533,8.533,8.533s8.533-3.413,8.533-8.533v-8.533h8.533
				c9.387,0,17.067-7.68,17.067-17.067v-8.533C118.467,458.947,110.787,451.267,101.4,451.267z M75.8,178.2v-13.653l17.067-17.067
				v30.72H75.8z M75.8,121.88l17.067-17.067v18.773L75.8,140.653V121.88z M84.333,16.067c5.12,0,8.533,3.413,8.533,8.533v56.32
				L75.8,97.987V24.6C75.8,19.48,79.213,16.067,84.333,16.067z M101.4,476.867H67.267v-8.533H101.4V476.867z"/>
			<path d="M186.733,246.467c-14.507,0-25.6,11.093-25.6,25.6V331.8c0,9.387,7.68,17.067,17.067,17.067h17.067
				c9.387,0,17.067-7.68,17.067-17.067v-59.733C212.333,257.56,201.24,246.467,186.733,246.467z M195.267,331.8H178.2v-59.733
				c0-5.12,3.413-8.533,8.533-8.533s8.533,3.413,8.533,8.533V331.8z"/>
			<path d="M442.733,451.267H434.2V383c5.12,0,8.533-3.413,8.533-8.533s-3.413-8.533-8.533-8.533v-68.267
				c5.12,0,8.533-3.413,8.533-8.533s-3.413-8.533-8.533-8.533v-85.333h8.533c5.12,0,8.533-3.413,8.533-8.533V24.6
				c0-14.507-11.093-25.6-25.6-25.6c-14.507,0-25.6,11.093-25.6,25.6v162.133c0,5.12,3.413,8.533,8.533,8.533h8.533V280.6
				c-5.12,0-8.533,3.413-8.533,8.533s3.413,8.533,8.533,8.533v68.267c-5.12,0-8.533,3.413-8.533,8.533s3.413,8.533,8.533,8.533
				v68.267H408.6c-9.387,0-17.067,7.68-17.067,17.067v8.533c0,9.387,7.68,17.067,17.067,17.067h8.533v8.533
				c0,5.12,3.413,8.533,8.533,8.533s8.533-3.413,8.533-8.533v-8.533h8.533c9.387,0,17.067-7.68,17.067-17.067v-8.533
				C459.8,458.947,452.12,451.267,442.733,451.267z M417.133,178.2v-13.653L434.2,147.48v30.72H417.133z M417.133,121.88
				l17.067-17.067v18.773l-17.067,17.067V121.88z M425.667,16.067c5.12,0,8.533,3.413,8.533,8.533v56.32l-17.067,17.067V24.6
				C417.133,19.48,420.547,16.067,425.667,16.067z M442.733,476.867H408.6v-8.533h34.133V476.867z"/>
			<path d="M237.777,46.406c-0.041-0.55-0.079-1.101-0.138-1.646c-0.05-0.469-0.117-0.936-0.18-1.404
				c-0.055-0.407-0.107-0.815-0.171-1.219c-0.087-0.551-0.191-1.099-0.296-1.647c-0.058-0.3-0.115-0.601-0.179-0.899
				c-0.128-0.607-0.27-1.211-0.421-1.813c-0.057-0.226-0.115-0.452-0.175-0.677c-0.167-0.63-0.345-1.257-0.537-1.879
				c-0.066-0.213-0.136-0.423-0.205-0.635c-0.192-0.594-0.388-1.187-0.603-1.773c-0.186-0.511-0.389-1.013-0.591-1.516
				c-0.102-0.25-0.193-0.505-0.299-0.754c-0.412-0.983-0.857-1.949-1.328-2.9c-0.132-0.32-0.289-0.626-0.472-0.918
				C223.635,10.296,206.444-1,186.733-1c-28.16,0-51.2,23.04-51.2,51.2v62.293v48.64v48.64V459.8c0,28.16,23.04,51.2,51.2,51.2
				c28.16,0,51.2-23.04,51.2-51.2V124.44V75.8V50.2c0-0.922-0.028-1.837-0.076-2.747C237.838,47.103,237.802,46.755,237.777,46.406z
				 M152.6,116.76l68.224-68.224c0.027,0.552,0.042,1.106,0.042,1.664v22.187L152.6,140.653V116.76z M152.6,164.547l68.267-68.267
				v23.893L152.6,188.44V164.547z M186.733,16.067c11.336,0,21.42,5.606,27.637,14.176l-61.77,61.77V50.2
				C152.6,31.427,167.96,16.067,186.733,16.067z M186.733,493.933c-18.773,0-34.133-15.36-34.133-34.133V213.187l68.267-68.267
				V459.8C220.867,478.573,205.507,493.933,186.733,493.933z"/>
			<path d="M186.733,468.333c-5.12,0-8.533-3.413-8.533-8.533v-68.267c0-5.12-3.413-8.533-8.533-8.533
				c-5.12,0-8.533,3.413-8.533,8.533V459.8c0,14.507,11.093,25.6,25.6,25.6c5.12,0,8.533-3.413,8.533-8.533
				S191.853,468.333,186.733,468.333z"/>
			<path d="M323.267,246.467c-14.507,0-25.6,11.093-25.6,25.6V331.8c0,9.387,7.68,17.067,17.067,17.067H331.8
				c9.387,0,17.067-7.68,17.067-17.067v-59.733C348.867,257.56,337.773,246.467,323.267,246.467z M331.8,331.8h-17.067v-59.733
				c0-5.12,3.413-8.533,8.533-8.533s8.533,3.413,8.533,8.533V331.8z"/>
			<path d="M374.353,46.967c-0.435-6.891-2.246-13.422-5.165-19.321c-0.132-0.321-0.289-0.627-0.472-0.919
				C360.168,10.296,342.978-1,323.267-1c-28.16,0-51.2,23.04-51.2,51.2v62.293v48.64v48.64V459.8c0,28.16,23.04,51.2,51.2,51.2
				s51.2-23.04,51.2-51.2V124.44V75.8V50.2c0-0.928-0.028-1.85-0.078-2.767C374.38,47.277,374.363,47.123,374.353,46.967z
				 M289.133,116.76l68.224-68.224c0.027,0.552,0.042,1.106,0.042,1.664v22.187l-68.267,68.267V116.76z M289.133,164.547
				L357.4,96.28v23.893l-68.267,68.267V164.547z M323.267,16.067c11.336,0,21.42,5.606,27.637,14.176l-61.77,61.77V50.2
				C289.133,31.427,304.493,16.067,323.267,16.067z M323.267,493.933c-18.773,0-34.133-15.36-34.133-34.133V213.187L357.4,144.92
				V459.8C357.4,478.573,342.04,493.933,323.267,493.933z"/>
			<path d="M323.267,468.333c-5.12,0-8.533-3.413-8.533-8.533v-68.267c0-5.12-3.413-8.533-8.533-8.533s-8.533,3.413-8.533,8.533
				V459.8c0,14.507,11.093,25.6,25.6,25.6c5.12,0,8.533-3.413,8.533-8.533S328.387,468.333,323.267,468.333z"/>
		</g>
	</g>
</g>
<g>
</g>
<g>
</g>
<g>
</g>
<g>
</g>
<g>
</g>
<g>
</g>
<g>
</g>
<g>
</g>
<g>
</g>
<g>
</g>
<g>
</g>
<g>
</g>
<g>
</g>
<g>
</g>
<g>
</g>
</svg>
